<?xml version="1.0" encoding="UTF-8" standalone="no"?><!DOCTYPE svg PUBLIC "-//W3C//DTD SVG 1.1//EN" "http://www.w3.org/Graphics/SVG/1.1/DTD/svg11.dtd"><svg width="100%" height="100%" viewBox="0 0 1584 2334" version="1.1" xmlns="http://www.w3.org/2000/svg" xmlns:xlink="http://www.w3.org/1999/xlink" xml:space="preserve" xmlns:serif="http://www.serif.com/" style="fill-rule:evenodd;clip-rule:evenodd;"><g><path d="M695.527,82.94l0,291.667c0,4.599 -3.734,8.333 -8.333,8.333l-12.5,0c-4.599,0 -8.333,-3.734 -8.333,-8.333l0,-291.667c0,-4.599 3.734,-8.333 8.333,-8.333l12.5,0c4.599,0 8.333,3.734 8.333,8.333Z" style="fill:#fff;fill-opacity:0.18;"/><path d="M808.027,82.94l0,291.667c0,4.599 -3.734,8.333 -8.333,8.333l-225,0c-4.599,0 -8.333,-3.734 -8.333,-8.333l0,-291.667c0,-4.599 3.734,-8.333 8.333,-8.333l225,0c4.599,0 8.333,3.734 8.333,8.333Z" style="fill:url(#_Linear1);stroke:#bebebe;stroke-width:2.08px;"/><g><g><path d="M601.473,419.589l13.926,-41.667l147.22,0l13.926,41.667l-13.926,41.667l-147.22,0l-13.926,-41.667Z" style="fill:url(#_Linear2);fill-rule:nonzero;stroke:#666;stroke-width:3.26px;"/><path d="M661.156,382.089l0,75" style="fill:none;fill-rule:nonzero;stroke:#999;stroke-width:1.63px;"/><path d="M716.861,382.089l0,75" style="fill:none;fill-rule:nonzero;stroke:#777;stroke-width:1.63px;"/><path d="M788.482,482.089l0,116.667c0,11.498 -9.335,20.833 -20.833,20.833l-157.279,0c-11.498,0 -20.833,-9.335 -20.833,-20.833l0,-116.667c0,-11.498 9.335,-20.833 20.833,-20.833l157.279,0c11.498,0 20.833,9.335 20.833,20.833Z" style="fill:url(#_Linear3);stroke:#888;stroke-width:1.96px;"/><path d="M593.515,494.589l190.988,0" style="fill:none;fill-rule:nonzero;stroke:#a0a0a0;stroke-width:1.63px;"/><path d="M593.515,527.923l190.988,0" style="fill:none;fill-rule:nonzero;stroke:#a0a0a0;stroke-width:1.63px;"/><path d="M593.515,561.256l190.988,0" style="fill:none;fill-rule:nonzero;stroke:#a0a0a0;stroke-width:1.63px;"/><path d="M593.515,594.589l190.988,0" style="fill:none;fill-rule:nonzero;stroke:#a0a0a0;stroke-width:1.63px;"/><path d="M690.998,479.349l0,122.148c0,7.686 -6.24,13.926 -13.926,13.926c-7.686,0 -13.926,-6.24 -13.926,-13.926l0,-122.148c0,-7.686 6.24,-13.926 13.926,-13.926c7.686,0 13.926,6.24 13.926,13.926Z" style="fill:#fff;fill-opacity:0.12;"/></g></g><g><g><path d="M773.579,1578.497l-13.926,41.667l-147.22,0l-13.926,-41.667l13.926,-41.667l147.22,0l13.926,41.667Z" style="fill:url(#_Linear4);fill-rule:nonzero;stroke:#666;stroke-width:3.26px;"/><path d="M713.896,1690.997l0,-75" style="fill:none;fill-rule:nonzero;stroke:#999;stroke-width:1.63px;"/><path d="M586.57,1515.997l0,-116.667c0,-11.498 9.335,-20.833 20.833,-20.833l157.279,0c11.498,0 20.833,9.335 20.833,20.833l0,116.667c0,11.498 -9.335,20.833 -20.833,20.833l-157.279,-0c-11.498,0 -20.833,-9.335 -20.833,-20.833Z" style="fill:url(#_Linear5);stroke:#888;stroke-width:1.96px;"/><path d="M781.537,1503.497l-190.988,0" style="fill:none;fill-rule:nonzero;stroke:#a0a0a0;stroke-width:1.63px;"/><path d="M781.537,1470.164l-190.988,-0" style="fill:none;fill-rule:nonzero;stroke:#a0a0a0;stroke-width:1.63px;"/><path d="M781.537,1436.831l-190.988,-0" style="fill:none;fill-rule:nonzero;stroke:#a0a0a0;stroke-width:1.63px;"/><path d="M781.537,1403.497l-190.988,0" style="fill:none;fill-rule:nonzero;stroke:#a0a0a0;stroke-width:1.63px;"/><path d="M684.054,1518.738l0,-122.148c0,-7.686 6.24,-13.926 13.926,-13.926c7.686,0 13.926,6.24 13.926,13.926l0,122.148c0,7.686 -6.24,13.926 -13.926,13.926c-7.686,0 -13.926,-6.24 -13.926,-13.926Z" style="fill:#fff;fill-opacity:0.12;"/></g><path d="M658.191,1690.997l0,-75" style="fill:none;fill-rule:nonzero;stroke:#777;stroke-width:1.63px;"/></g><path d="M958.027,635.876l-5.918,677.387c0,6.22 -54.91,61.115 -61.808,61.115l-436.44,1.496c-6.899,0 -12.5,-5.049 -12.5,-11.269l0,-728.729c0,-6.22 5.601,-11.269 12.5,-11.269l491.667,0c6.899,0 12.5,5.049 12.5,11.269Z" style="fill:url(#_Linear6);stroke:#999;stroke-width:3.97px;"/><path d="M924.693,649.607l0,241.667c0,4.599 -3.734,8.333 -8.333,8.333l-441.667,0c-4.599,0 -8.333,-3.734 -8.333,-8.333l0,-241.667c0,-4.599 3.734,-8.333 8.333,-8.333l441.667,0c4.599,0 8.333,3.734 8.333,8.333Z" style="fill:#acacac;"/><circle cx="687.193" cy="757.94" r="100" style="fill:url(#_Linear7);stroke:#777;stroke-width:4.17px;"/><circle cx="687.193" cy="757.94" r="95.833" style="fill:none;stroke:#888;stroke-width:10.42px;stroke-dasharray:9.167,7.5;"/><circle cx="687.193" cy="757.94" r="70.833" style="fill:#ababab;stroke:#999;stroke-width:2.08px;"/><circle cx="641.36" cy="712.107" r="8.333" style="fill:#6a6a6a;stroke:#555;stroke-width:2.08px;"/><circle cx="733.027" cy="712.107" r="8.333" style="fill:#6a6a6a;stroke:#555;stroke-width:2.08px;"/><circle cx="641.36" cy="803.773" r="8.333" style="fill:#6a6a6a;stroke:#555;stroke-width:2.08px;"/><circle cx="733.027" cy="803.773" r="8.333" style="fill:#6a6a6a;stroke:#555;stroke-width:2.08px;"/><path d="M734.72,694.238c18.379,14.656 29.872,37.489 29.091,62.77c-1.314,42.581 -36.951,76.084 -79.532,74.77c-42.581,-1.314 -76.084,-36.951 -74.77,-79.532c0.759,-24.591 12.965,-46.154 31.345,-59.732l0,-684.754c0,-5.749 6.572,-10.417 14.666,-10.417l64.533,0c8.095,0 14.666,4.668 14.666,10.417l-0,686.479Z" style="fill:#1e1e1e;stroke:#0a0a0a;stroke-width:3.05px;"/><path d="M668.037,5.676l4.167,0c2.3,0 4.167,1.867 4.167,4.167l-0,666.667c0,2.3 -1.867,4.167 -4.167,4.167l-4.167,0c-2.3,0 -4.167,-1.867 -4.167,-4.167l0,-666.667c0,-2.3 1.867,-4.167 4.167,-4.167Z" style="fill:#333;fill-opacity:0.5;"/><path d="M858.027,924.607l0,421.155c0,9.199 -7.468,16.667 -16.667,16.667l-383.333,0c-9.199,0 -16.667,-7.468 -16.667,-16.667l0,-421.155c0,-9.199 7.468,-16.667 16.667,-16.667l383.333,0c9.199,0 16.667,7.468 16.667,16.667Z" style="fill:url(#_Linear8);stroke:#c86a08;stroke-width:3.85px;"/><text x="478.86px" y="978.773px" style="font-family:'ArialRoundedMTBold', 'Arial Rounded MT Bold', sans-serif;font-size:41.667px;">B<tspan x="509.161px 537.286px 562.786px 576.161px 611.203px " y="978.773px 978.773px 978.773px 978.773px 978.773px ">ELIMO</tspan></text><path d="M612.069,927.66l-16.667,17.702l-20.648,0l16.667,-17.702l20.648,0Z" style="stroke:#000;stroke-width:2.5px;stroke-linecap:round;stroke-linejoin:round;stroke-miterlimit:1.5;"/><path d="M641.236,927.66l-16.667,17.702l-20.648,0l16.667,-17.702l20.648,0Z" style="stroke:#000;stroke-width:2.5px;stroke-linecap:round;stroke-linejoin:round;stroke-miterlimit:1.5;"/><text x="474.693px" y="1095.44px" style="font-family:'Helvetica';font-size:41.667px;fill:#3a1800;">SR230A-R-9</text><circle cx="782.361" cy="991.063" r="30.506" style="fill:#222;stroke:#111;stroke-width:4.88px;"/><path d="M764.493,990.588l37.056,0" style="fill:none;fill-rule:nonzero;stroke:#444;stroke-width:7.41px;"/><path d="M571.121,1201.347c2.954,1.386 4.54,6.494 5.319,12.913c1.763,14.527 -0.607,35.769 -0.607,35.769c0,7.634 -4.668,13.832 -10.417,13.832l-129.422,0.326c-5.749,0 -10.417,-6.198 -10.417,-13.832l0,-71.925c0,-7.634 4.668,-13.832 10.417,-13.832l135.127,36.748Z" style="fill:#1e1e1e;stroke:#0a0a0a;stroke-width:6.32px;"/><path d="M683.027,1387.107l0,133.333c0,9.199 -7.468,16.667 -16.667,16.667l-25,0c-9.199,0 -16.667,-7.468 -16.667,-16.667l0,-133.333c0,-9.199 7.468,-16.667 16.667,-16.667l25,0c9.199,0 16.667,7.468 16.667,16.667Z" style="fill:#fff;fill-opacity:0.12;"/><path d="M678.86,1632.94l0,379.167c0,4.599 -3.734,8.333 -8.333,8.333l-12.5,0c-4.599,0 -8.333,-3.734 -8.333,-8.333l0,-379.167c0,-4.599 3.734,-8.333 8.333,-8.333l12.5,0c4.599,0 8.333,3.734 8.333,8.333Z" style="fill:#fff;fill-opacity:0.18;"/><path d="M689.731,707.51c26.613,0.821 47.553,23.095 46.731,49.708c-0.821,26.613 -23.095,47.553 -49.708,46.731c-26.613,-0.821 -47.553,-23.095 -46.731,-49.708c0.821,-26.613 23.095,-47.553 49.708,-46.731Z" style="fill:#252525;"/><path d="M688.838,736.442c10.645,0.329 19.021,9.238 18.693,19.883c-0.329,10.645 -9.238,19.021 -19.883,18.693c-10.645,-0.329 -19.021,-9.238 -18.693,-19.883c0.329,-10.645 9.238,-19.021 19.883,-18.693Z" style="fill:#333;"/><path d="M688.466,748.497c3.992,0.123 7.133,3.464 7.01,7.456c-0.123,3.992 -3.464,7.133 -7.456,7.01c-3.992,-0.123 -7.133,-3.464 -7.01,-7.456c0.123,-3.992 3.464,-7.133 7.456,-7.01Z" style="fill:#555;"/><path d="M813.066,1632.94l0,379.167c0,4.599 -3.734,8.333 -8.333,8.333l-225,0c-4.599,0 -8.333,-3.734 -8.333,-8.333l0,-379.167c0,-4.599 3.734,-8.333 8.333,-8.333l225,0c4.599,0 8.333,3.734 8.333,8.333Z" style="fill:url(#_Linear9);stroke:#bebebe;stroke-width:2.08px;"/><path d="M556.952,1497.009c0,112.5 -29.167,195.833 25,279.167c38.889,41.667 80.556,65.278 125,70.833c28.822,3.603 67.946,10.009 133.459,6.898" style="fill:none;fill-rule:nonzero;stroke:#1a1a1a;stroke-width:66.67px;stroke-linecap:round;stroke-linejoin:round;"/><path d="M648.619,1297.009l0,183.333c0,9.199 -7.468,16.667 -16.667,16.667l-150,0c-9.199,0 -16.667,-7.468 -16.667,-16.667l0,-183.333c0,-9.199 7.468,-16.667 16.667,-16.667l150,0c9.199,0 16.667,7.468 16.667,16.667Z" style="fill:#2a2a2a;stroke:#111;stroke-width:4.17px;"/></g><circle cx="683.01" cy="2097.593" r="32.496" style="fill:#43a047;fill-opacity:0.9;"/><text x="599.113px" y="2204.988px" style="font-family:'Helvetica-Bold', 'Helvetica';font-weight:700;font-size:67.162px;fill:#43a047;">OPEN</text><text x="587.371px" y="2280.407px" style="font-family:'Helvetica';font-size:44.117px;fill:#90a4ae;">Heating On</text><defs><linearGradient id="_Linear1" x1="0" y1="0" x2="1" y2="0" gradientUnits="userSpaceOnUse" gradientTransform="matrix(241.666667,0,0,241.666667,566.359851,74.606662)"><stop offset="0" style="stop-color:#d5d5d5;stop-opacity:1"/><stop offset="0.25" style="stop-color:#e8e8e8;stop-opacity:1"/><stop offset="0.5" style="stop-color:#f2f2f2;stop-opacity:1"/><stop offset="0.75" style="stop-color:#e8e8e8;stop-opacity:1"/><stop offset="1" style="stop-color:#d5d5d5;stop-opacity:1"/></linearGradient><linearGradient id="_Linear2" x1="0" y1="0" x2="1" y2="0" gradientUnits="userSpaceOnUse" gradientTransform="matrix(175.072261,0,0,366.666667,601.472666,377.92257)"><stop offset="0" style="stop-color:#686868;stop-opacity:1"/><stop offset="0.2" style="stop-color:#8a8a8a;stop-opacity:1"/><stop offset="0.5" style="stop-color:#a8a8a8;stop-opacity:1"/><stop offset="0.8" style="stop-color:#8a8a8a;stop-opacity:1"/><stop offset="1" style="stop-color:#686868;stop-opacity:1"/></linearGradient><linearGradient id="_Linear3" x1="0" y1="0" x2="1" y2="0" gradientUnits="userSpaceOnUse" gradientTransform="matrix(198.945751,0,0,416.666667,589.535921,461.255903)"><stop offset="0" style="stop-color:#909090;stop-opacity:1"/><stop offset="0.1" style="stop-color:#b5b5b5;stop-opacity:1"/><stop offset="0.35" style="stop-color:#d0d0d0;stop-opacity:1"/><stop offset="0.5" style="stop-color:#ddd;stop-opacity:1"/><stop offset="0.65" style="stop-color:#d0d0d0;stop-opacity:1"/><stop offset="0.9" style="stop-color:#b5b5b5;stop-opacity:1"/><stop offset="1" style="stop-color:#909090;stop-opacity:1"/></linearGradient><linearGradient id="_Linear4" x1="0" y1="0" x2="1" y2="0" gradientUnits="userSpaceOnUse" gradientTransform="matrix(-175.072261,-0,0,-366.666667,773.579268,1620.164127)"><stop offset="0" style="stop-color:#686868;stop-opacity:1"/><stop offset="0.2" style="stop-color:#8a8a8a;stop-opacity:1"/><stop offset="0.5" style="stop-color:#a8a8a8;stop-opacity:1"/><stop offset="0.8" style="stop-color:#8a8a8a;stop-opacity:1"/><stop offset="1" style="stop-color:#686868;stop-opacity:1"/></linearGradient><linearGradient id="_Linear5" x1="0" y1="0" x2="1" y2="0" gradientUnits="userSpaceOnUse" gradientTransform="matrix(-198.945751,-0,0,-416.666667,785.516013,1536.830793)"><stop offset="0" style="stop-color:#909090;stop-opacity:1"/><stop offset="0.1" style="stop-color:#b5b5b5;stop-opacity:1"/><stop offset="0.35" style="stop-color:#d0d0d0;stop-opacity:1"/><stop offset="0.5" style="stop-color:#ddd;stop-opacity:1"/><stop offset="0.65" style="stop-color:#d0d0d0;stop-opacity:1"/><stop offset="0.9" style="stop-color:#b5b5b5;stop-opacity:1"/><stop offset="1" style="stop-color:#909090;stop-opacity:1"/></linearGradient><linearGradient id="_Linear6" x1="0" y1="0" x2="1" y2="0" gradientUnits="userSpaceOnUse" gradientTransform="matrix(0,751.26651,-833.333333,0,441.359851,624.606662)"><stop offset="0" style="stop-color:#c0c0c0;stop-opacity:1"/><stop offset="1" style="stop-color:#a8a8a8;stop-opacity:1"/></linearGradient><linearGradient id="_Linear7" x1="0" y1="0" x2="1" y2="0" gradientUnits="userSpaceOnUse" gradientTransform="matrix(200,200,-200,200,587.193184,657.939995)"><stop offset="0" style="stop-color:#8a8a8a;stop-opacity:1"/><stop offset="0.5" style="stop-color:#a0a0a0;stop-opacity:1"/><stop offset="1" style="stop-color:#888;stop-opacity:1"/></linearGradient><linearGradient id="_Linear8" x1="0" y1="0" x2="1" y2="0.045" gradientUnits="userSpaceOnUse" gradientTransform="matrix(83.333333,454.488532,-541.666667,69.921313,441.359851,907.939995)"><stop offset="0" style="stop-color:#f55f20;stop-opacity:1"/><stop offset="0.15" style="stop-color:#f0630e;stop-opacity:1"/><stop offset="1" style="stop-color:#dd7208;stop-opacity:1"/></linearGradient><linearGradient id="_Linear9" x1="0" y1="0" x2="1" y2="0" gradientUnits="userSpaceOnUse" gradientTransform="matrix(241.666667,0,0,241.666667,571.399161,1624.606662)"><stop offset="0" style="stop-color:#d5d5d5;stop-opacity:1"/><stop offset="0.25" style="stop-color:#e8e8e8;stop-opacity:1"/><stop offset="0.5" style="stop-color:#f2f2f2;stop-opacity:1"/><stop offset="0.75" style="stop-color:#e8e8e8;stop-opacity:1"/><stop offset="1" style="stop-color:#d5d5d5;stop-opacity:1"/></linearGradient></defs></svg>